<svg xmlns="http://www.w3.org/2000/svg" viewBox="0 0 1600 900" role="img" aria-label="Illustration of a job notification checklist"><defs><linearGradient id="g" x1="0" x2="1"><stop stop-color="#eef4ff"/><stop offset="1" stop-color="#f8fafc"/></linearGradient></defs><rect width="1600" height="900" fill="url(#g)"/><rect x="260" y="150" width="760" height="600" rx="44" fill="#fff" stroke="#d8e1ef" stroke-width="10"/><rect x="350" y="245" width="420" height="42" rx="21" fill="#172033"/><rect x="350" y="340" width="500" height="24" rx="12" fill="#c9d4e5"/><rect x="350" y="402" width="390" height="24" rx="12" fill="#c9d4e5"/><rect x="350" y="495" width="42" height="42" rx="10" fill="#1769e0"/><path d="m362 516 10 10 22-26" fill="none" stroke="#fff" stroke-width="8" stroke-linecap="round" stroke-linejoin="round"/><rect x="420" y="505" width="360" height="22" rx="11" fill="#98a9c3"/><rect x="350" y="580" width="42" height="42" rx="10" fill="#1769e0"/><path d="m362 601 10 10 22-26" fill="none" stroke="#fff" stroke-width="8" stroke-linecap="round" stroke-linejoin="round"/><rect x="420" y="590" width="300" height="22" rx="11" fill="#98a9c3"/><circle cx="1175" cy="380" r="150" fill="#1769e0"/><path d="M1110 385h130M1175 320v130" stroke="#fff" stroke-width="26" stroke-linecap="round"/></svg>