<svg xmlns="http://www.w3.org/2000/svg" viewBox="0 0 1600 900" role="img" aria-label="Illustration of scholarship application documents and graduation cap"><defs><linearGradient id="g" x1="0" y1="0" x2="1" y2="1"><stop stop-color="#fff5ec"/><stop offset="1" stop-color="#fffdf9"/></linearGradient></defs><rect width="1600" height="900" fill="url(#g)"/><path d="M780 170 1130 320 780 470 430 320Z" fill="#6a3d15"/><path d="M560 385v170c0 95 100 170 220 170s220-75 220-170V385L780 480Z" fill="#9a5d24"/><path d="M1130 320v220" stroke="#6a3d15" stroke-width="20" stroke-linecap="round"/><circle cx="1130" cy="575" r="34" fill="#d58a42"/><rect x="210" y="500" width="360" height="240" rx="28" fill="#fff" stroke="#ead6c3" stroke-width="9"/><rect x="270" y="560" width="240" height="26" rx="13" fill="#c79a71"/><rect x="270" y="620" width="180" height="20" rx="10" fill="#e0c2a5"/><rect x="270" y="670" width="210" height="20" rx="10" fill="#e0c2a5"/><circle cx="1320" cy="220" r="96" fill="#d58a42"/><path d="M1280 220h80M1320 180v80" stroke="#fff" stroke-width="18" stroke-linecap="round"/></svg>